<svg xmlns="http://www.w3.org/2000/svg" xmlns:xlink="http://www.w3.org/1999/xlink" width="500" zoomAndPan="magnify" viewBox="0 0 375 374.999991" height="500" preserveAspectRatio="xMidYMid meet" version="1.0"><defs><clipPath id="30d526748b"><path d="M 35.027344 34.722656 L 199.640625 34.722656 L 199.640625 199.335938 L 35.027344 199.335938 Z M 35.027344 34.722656 " clip-rule="nonzero"/></clipPath><clipPath id="0fecad317a"><path d="M 175.359375 34.722656 L 339.972656 34.722656 L 339.972656 199.335938 L 175.359375 199.335938 Z M 175.359375 34.722656 " clip-rule="nonzero"/></clipPath><clipPath id="4594e3f933"><path d="M 35.027344 175.664062 L 199.640625 175.664062 L 199.640625 340.277344 L 35.027344 340.277344 Z M 35.027344 175.664062 " clip-rule="nonzero"/></clipPath><clipPath id="41d61371f5"><path d="M 175.359375 175.664062 L 339.972656 175.664062 L 339.972656 340.277344 L 175.359375 340.277344 Z M 175.359375 175.664062 " clip-rule="nonzero"/></clipPath></defs><g clip-path="url(#30d526748b)"><path stroke-linecap="butt" transform="matrix(0.82306, 0, 0, 0.82306, 35.027573, 34.724079)" fill-opacity="1" fill="#ff66c4" fill-rule="nonzero" stroke-linejoin="miter" d="M -0.000278631 -0.00172803 L 200.001348 -0.00172803 L 200.001348 199.999898 L -0.000278631 199.999898 Z M -0.000278631 -0.00172803 " stroke="#000000" stroke-width="52.85157" stroke-opacity="1" stroke-miterlimit="4"/></g><g clip-path="url(#0fecad317a)"><path stroke-linecap="butt" transform="matrix(0.82306, 0, 0, 0.82306, 175.360467, 34.724079)" fill-opacity="1" fill="#5ce1e6" fill-rule="nonzero" stroke-linejoin="miter" d="M -0.00132625 -0.00172803 L 200.0003 -0.00172803 L 200.0003 199.999898 L -0.00132625 199.999898 Z M -0.00132625 -0.00172803 " stroke="#000000" stroke-width="52.85157" stroke-opacity="1" stroke-miterlimit="4"/></g><g clip-path="url(#4594e3f933)"><path stroke-linecap="butt" transform="matrix(0.82306, 0, 0, 0.82306, 35.027573, 175.663964)" fill-opacity="1" fill="#c1ff72" fill-rule="nonzero" stroke-linejoin="miter" d="M -0.000278631 0.000120083 L 200.001348 0.000120083 L 200.001348 200.001746 L -0.000278631 200.001746 Z M -0.000278631 0.000120083 " stroke="#000000" stroke-width="52.85157" stroke-opacity="1" stroke-miterlimit="4"/></g><g clip-path="url(#41d61371f5)"><path stroke-linecap="butt" transform="matrix(0.82306, 0, 0, 0.82306, 175.360467, 175.663964)" fill-opacity="1" fill="#ffde59" fill-rule="nonzero" stroke-linejoin="miter" d="M -0.00132625 0.000120083 L 200.0003 0.000120083 L 200.0003 200.001746 L -0.00132625 200.001746 Z M -0.00132625 0.000120083 " stroke="#000000" stroke-width="52.85157" stroke-opacity="1" stroke-miterlimit="4"/></g></svg>